<svg width="19" height="15" viewBox="0 0 19 15" fill="none" xmlns="http://www.w3.org/2000/svg">
<path d="M6.13653 13.4931C6.83293 13.4931 7.52252 13.3359 8.16591 13.0306C8.8093 12.7252 9.3939 12.2776 9.88634 11.7134C10.3788 11.1491 10.7694 10.4793 11.0359 9.74206C11.3024 9.00483 11.4396 8.21468 11.4396 7.41672C11.4396 6.61876 11.3024 5.82861 11.0359 5.09139C10.7694 4.35417 10.3788 3.68431 9.88634 3.12007C9.3939 2.55582 8.8093 2.10824 8.16591 1.80287C7.52252 1.4975 6.83293 1.34033 6.13653 1.34033C4.73008 1.34033 3.38123 1.98052 2.38672 3.12007C1.39221 4.25961 0.833496 5.80516 0.833496 7.41672C0.833496 9.02828 1.39221 10.5738 2.38672 11.7134C3.38123 12.8529 4.73008 13.4931 6.13653 13.4931Z" stroke="url(#paint0_linear_2538_4963)" stroke-width="1.5" stroke-linecap="round" stroke-linejoin="round"/>
<path d="M12.1976 13.4931C12.894 13.4931 13.5836 13.3359 14.2269 13.0306C14.8703 12.7252 15.4549 12.2776 15.9474 11.7134C16.4398 11.1491 16.8304 10.4793 17.0969 9.74206C17.3634 9.00483 17.5006 8.21468 17.5006 7.41672C17.5006 6.61876 17.3634 5.82861 17.0969 5.09139C16.8304 4.35417 16.4398 3.68431 15.9474 3.12007C15.4549 2.55582 14.8703 2.10824 14.2269 1.80287C13.5836 1.4975 12.894 1.34033 12.1976 1.34033C10.7911 1.34033 9.44226 1.98052 8.44775 3.12007C7.45324 4.25961 6.89453 5.80516 6.89453 7.41672C6.89453 9.02828 7.45324 10.5738 8.44775 11.7134C9.44226 12.8529 10.7911 13.4931 12.1976 13.4931Z" stroke="url(#paint1_linear_2538_4963)" stroke-width="1.5" stroke-linecap="round" stroke-linejoin="round"/>
<defs>
<linearGradient id="paint0_linear_2538_4963" x1="6.13653" y1="1.34033" x2="6.13653" y2="13.4931" gradientUnits="userSpaceOnUse">
<stop stop-color="#317EF4"/>
<stop offset="1" stop-color="#8E2BFF"/>
</linearGradient>
<linearGradient id="paint1_linear_2538_4963" x1="12.1976" y1="1.34033" x2="12.1976" y2="13.4931" gradientUnits="userSpaceOnUse">
<stop stop-color="#317EF4"/>
<stop offset="1" stop-color="#8E2BFF"/>
</linearGradient>
</defs>
</svg>
