<?xml version="1.0" standalone="no"?>
<!DOCTYPE svg PUBLIC "-//W3C//DTD SVG 20010904//EN" "http://www.w3.org/TR/2001/REC-SVG-20010904/DTD/svg10.dtd">
<svg version="1.0" xmlns="http://www.w3.org/2000/svg" width="1144.000000pt" height="1280.000000pt"
  viewBox="0 0 1144.000000 1280.000000" preserveAspectRatio="xMidYMid meet">
  <metadata>
    Created by potrace 1.15, written by Peter Selinger 2001-2017
  </metadata>
  <g transform="translate(0.000000,1280.000000) scale(0.100000,-0.100000)" fill="#8E2BFF" stroke="none">
    <path d="M5515 12465 c-71 -18 -149 -52 -365 -163 -312 -160 -717 -351 -895
-422 -66 -27 -174 -72 -240 -100 -241 -103 -696 -264 -990 -349 -102 -29 -479
-116 -630 -145 -149 -29 -760 -133 -820 -140 -57 -6 -355 -54 -450 -72 -235
-45 -300 -69 -395 -147 -50 -40 -92 -119 -116 -219 l-26 -103 7 -350 c6 -359
14 -576 40 -1145 8 -179 19 -435 25 -570 18 -413 71 -1079 101 -1250 11 -63
25 -142 30 -175 74 -447 311 -1377 473 -1850 66 -196 173 -472 273 -705 166
-390 535 -1039 836 -1470 277 -396 443 -617 593 -790 155 -178 467 -498 614
-629 719 -641 848 -747 1089 -897 69 -43 194 -122 276 -175 216 -139 370 -213
526 -254 l128 -33 108 28 c112 28 372 137 462 193 247 153 500 316 567 364
108 77 338 265 554 453 96 84 216 187 265 228 176 149 573 553 801 817 179
207 655 875 816 1145 223 375 379 650 441 780 138 290 248 564 440 1090 94
259 212 713 367 1410 110 500 141 750 190 1565 5 94 15 238 20 320 5 83 19
350 30 595 11 245 25 537 30 650 6 113 10 308 10 433 0 197 -3 240 -21 310
-26 104 -72 174 -153 231 -57 41 -74 46 -266 89 -299 67 -349 77 -755 142
-941 152 -1526 319 -2335 668 -383 165 -993 459 -1192 574 -85 49 -244 94
-326 92 -26 -1 -87 -11 -137 -24z" />
  </g>
</svg>