<svg width="21" height="21" viewBox="0 0 21 21" fill="none" xmlns="http://www.w3.org/2000/svg">
<path d="M10.5 15.5L12.06 12.08L15.5 10.5L12.06 8.94L10.5 5.5L8.93 8.94L5.5 10.5L8.93 12.08L10.5 15.5ZM6.67 1.26C7.88508 0.759948 9.18605 0.501792 10.5 0.5C11.81 0.5 13.11 0.76 14.33 1.26C15.54 1.76 16.64 2.5 17.57 3.43C18.5 4.36 19.24 5.46 19.74 6.67C20.24 7.89 20.5 9.19 20.5 10.5C20.5 13.15 19.45 15.7 17.57 17.57C16.6426 18.5 15.5406 19.2376 14.3273 19.7404C13.114 20.2432 11.8134 20.5014 10.5 20.5C9.18605 20.4982 7.88508 20.24 6.67 19.74C5.45807 19.2363 4.35714 18.4989 3.43 17.57C2.50002 16.6426 1.76244 15.5406 1.25962 14.3273C0.756795 13.114 0.498649 11.8134 0.500005 10.5C0.500005 7.85 1.55 5.3 3.43 3.43C4.36 2.5 5.46 1.76 6.67 1.26ZM4.84 16.16C6.34 17.66 8.38 18.5 10.5 18.5C12.62 18.5 14.66 17.66 16.16 16.16C17.66 14.66 18.5 12.62 18.5 10.5C18.5 8.38 17.66 6.34 16.16 4.84C15.4165 4.09732 14.534 3.50841 13.5628 3.10691C12.5916 2.7054 11.5509 2.49917 10.5 2.5C8.38 2.5 6.34 3.34 4.84 4.84C4.09733 5.5835 3.50842 6.46604 3.10691 7.4372C2.70541 8.40836 2.49918 9.44911 2.5 10.5C2.5 12.62 3.34 14.66 4.84 16.16Z" fill="white"/>
</svg>
