<svg width="14" height="14" viewBox="0 0 14 14" fill="none" xmlns="http://www.w3.org/2000/svg">
<path d="M7 13C7.78793 13 8.56815 12.8448 9.2961 12.5433C10.0241 12.2417 10.6855 11.7998 11.2426 11.2426C11.7998 10.6855 12.2417 10.0241 12.5433 9.2961C12.8448 8.56815 13 7.78793 13 7C13 6.21207 12.8448 5.43185 12.5433 4.7039C12.2417 3.97595 11.7998 3.31451 11.2426 2.75736C10.6855 2.20021 10.0241 1.75825 9.2961 1.45672C8.56815 1.15519 7.78793 1 7 1C5.4087 1 3.88258 1.63214 2.75736 2.75736C1.63214 3.88258 1 5.4087 1 7C1 8.5913 1.63214 10.1174 2.75736 11.2426C3.88258 12.3679 5.4087 13 7 13Z" stroke="url(#paint0_linear_2539_5029)" stroke-width="1.5" stroke-linecap="round" stroke-linejoin="round"/>
<defs>
<linearGradient id="paint0_linear_2539_5029" x1="7" y1="1" x2="7" y2="13" gradientUnits="userSpaceOnUse">
<stop stop-color="#317EF4"/>
<stop offset="1" stop-color="#8E2BFF"/>
</linearGradient>
</defs>
</svg>
